# This file uses centimeters as units for non-parametric coordinates.

mtllib Rock_Medium.mtl
v -0.030793 0.842291 -0.519565
v 0.193149 0.662974 -0.678820
v 0.114000 0.500180 -0.792608
v -0.122763 0.578506 -0.706128
v -0.651906 0.215619 -0.471083
v -0.768212 0.225675 -0.300490
v -0.790547 0.131632 -0.261048
v -0.643857 0.034803 -0.460081
v -0.701189 0.063168 0.429738
v -0.750362 0.253767 0.285178
v -0.588299 0.126526 0.599192
v -0.564767 0.267916 0.585043
v -0.150026 -0.649628 0.560988
v -0.150762 -0.451564 0.744510
v 0.072629 -0.680605 0.629616
v 0.005367 -0.546691 0.764800
v 0.521932 -0.510473 0.664168
v 0.482640 -0.351178 0.778018
v 0.789844 -0.445978 0.363937
v 0.708813 0.034776 0.685677
v 0.744382 -0.516633 -0.381415
v 0.461834 -0.188370 -0.854278
v 0.358099 -0.643237 -0.631567
v 0.273706 -0.538898 -0.759414
v 0.031324 -0.754245 -0.512396
v -0.176878 -0.647232 -0.580853
v -0.085447 -0.779193 -0.401977
v -0.241666 -0.685017 -0.444405
v 0.034118 0.953218 0.172152
v 0.291551 0.864292 0.137175
v 0.447858 0.661266 0.525901
v -0.066744 0.828860 0.470833
vt 0.756270 0.685447
vt 0.704881 0.729062
vt 0.556932 0.517770
vt 0.605507 0.546809
vt 0.743836 0.501712
vt 0.784203 0.491374
vt 0.746741 0.460026
vt 0.791994 0.474802
vt 0.934010 0.441817
vt 0.907894 0.482671
vt 0.064363 0.710537
vt 0.975824 0.445182
vt 0.000000 0.541799
vt 0.933110 0.252871
vt 0.984716 0.221640
vt 0.942535 0.206979
vt 0.946988 0.106414
vt 0.102014 0.449793
vt 0.882799 0.049182
vt 0.198078 0.467133
vt 0.720596 0.069069
vt 0.516610 0.356463
vt 0.672682 0.159117
vt 0.577130 0.291308
vt 0.684372 0.288225
vt 0.702170 0.230308
vt 0.719655 0.288557
vt 0.726086 0.252367
vt 0.905368 0.701153
vt 0.363091 0.627730
vt 0.226405 0.707025
vt 0.268128 0.598553
vt 0.978288 0.490274
vt 0.968499 0.666729
vt 0.998953 0.783512
vt 0.901346 0.759797
vt 0.526444 0.551365
vt 0.634852 0.171631
vt 0.580854 0.100549
vt 0.392151 0.298644
vt 0.239976 0.349530
vt 1.000000 0.000000
vt 0.988013 0.096875
vt 0.005382 0.502864
vt 0.985626 0.273502
vt 0.037673 0.695227
vt 0.700543 0.644961
vt 0.666558 0.697637
vn -0.409465 0.890111 -0.200100
vn 0.717801 0.529633 -0.451940
vn -0.247566 0.019449 -0.968676
vn -0.443701 0.174680 -0.878986
vn -0.514340 0.162368 -0.842076
vn -0.727793 0.676281 -0.113852
vn -0.516724 -0.187775 -0.835306
vn -0.856414 -0.515786 0.022790
vn -0.835387 -0.524467 0.164510
vn -0.745678 0.664262 0.052164
vn -0.344091 0.447001 0.825707
vn -0.320428 0.029761 0.946805
vn -0.261754 0.025239 0.964805
vn -0.714018 -0.680911 0.162910
vn -0.079149 0.038077 0.996135
vn 0.131500 -0.961716 0.240438
vn 0.461968 -0.819593 0.338900
vn 0.142828 0.042822 0.988821
vn 0.964374 -0.263895 -0.018511
vn 0.860428 0.392323 0.325188
vn 0.958066 -0.232321 -0.167740
vn 0.821369 0.251855 -0.511784
vn 0.386647 -0.881453 -0.271192
vn -0.074199 -0.260786 -0.962541
vn -0.449235 -0.247558 -0.858431
vn 0.235341 -0.964994 -0.115760
vn -0.756613 -0.653680 -0.015462
vn 0.039108 -0.998422 0.040290
vn -0.391982 0.919185 0.038078
vn 0.840024 0.523766 -0.141521
vn -0.284307 0.610344 0.739358
vn 0.856351 0.461417 0.231859
s 1
usemtl initialShadingGroup
f 1/1/1 2/2/2 3/48/3 4/47/4
f 4/47/4 5/5/5 6/6/6 1/1/1
f 8/7/7 7/8/8 6/6/6 5/5/5
f 7/8/8 9/9/9 10/10/10 6/6/6
f 12/33/11 10/10/10 9/9/9 11/12/12
f 14/45/13 11/12/12 9/9/9 13/14/14
f 16/15/15 14/45/13 13/14/14 15/16/16
f 15/16/16 17/17/17 18/43/18 16/15/15
f 17/17/17 19/19/19 20/42/20 18/43/18
f 19/41/19 21/40/21 22/22/22 20/20/20
f 21/21/21 23/23/23 24/38/24 22/39/22
f 26/25/25 24/38/24 23/23/23 25/26/26
f 28/27/27 26/25/25 25/26/26 27/28/28
f 28/27/27 7/8/8 8/7/7 26/25/25
f 13/14/14 28/27/27 27/28/28 15/16/16
f 2/37/2 22/22/22 24/24/24 3/3/3
f 1/1/1 29/29/29 30/36/30 2/2/2
f 32/34/31 31/35/32 30/36/30 29/29/29
f 12/33/11 32/34/31 29/29/29 10/10/10
f 20/20/20 31/32/32 32/31/31 18/18/18
f 32/31/31 14/13/13 16/44/15 18/18/18
f 32/31/31 12/11/11 11/46/12 14/13/13
f 31/32/32 20/20/20 22/22/22 30/30/30
f 22/22/22 2/37/2 30/30/30
f 26/25/25 8/7/7 5/5/5 4/4/4
f 3/3/3 24/24/24 26/25/25 4/4/4
f 13/14/14 9/9/9 7/8/8 28/27/27
f 21/21/21 19/19/19 17/17/17 23/23/23
f 25/26/26 23/23/23 15/16/16 27/28/28
f 15/16/16 23/23/23 17/17/17
f 1/1/1 6/6/6 10/10/10 29/29/29
