# This file uses centimeters as units for non-parametric coordinates.

mtllib Plank.mtl
v -1.489041 0.083678 2.182088
v 1.747383 -0.017218 0.841550
v -1.484558 0.252166 2.180231
v 1.751866 0.151270 0.839693
v -1.747383 0.252166 1.545700
v 1.489041 0.151270 0.205162
v -1.751866 0.083678 1.547557
v 1.484558 -0.017218 0.207019
v -0.385101 0.250953 1.724833
v -0.647927 0.250953 1.090301
v -0.643443 0.419442 1.088444
v -0.380618 0.419442 1.722976
v 0.693707 0.217321 1.277987
v 0.430882 0.217321 0.643455
v 0.435365 0.385810 0.641598
v 0.698191 0.385810 1.276129
v -0.531549 0.544898 -1.166350
v -1.337334 0.640049 2.242949
v -0.514894 0.377386 -1.157738
v -1.320680 0.472536 2.251560
v -1.179848 0.303300 -1.312832
v -1.985634 0.398451 2.096466
v -1.196503 0.470813 -1.321444
v -2.002289 0.565963 2.087855
v -0.785146 0.376840 0.001208
v -1.450100 0.302755 -0.153886
v -1.433445 0.135242 -0.145274
v -0.768491 0.209328 0.009820
v -1.053741 0.408557 1.137642
v -1.718696 0.334471 0.982548
v -1.702041 0.166959 0.991159
v -1.037086 0.241045 1.146253
v 1.726177 0.015147 1.157631
v -1.426870 -0.002803 -0.371955
v 1.726650 0.183679 1.154680
v -1.426397 0.165728 -0.374906
v 1.426870 0.195339 1.772501
v -1.726177 0.177389 0.242915
v 1.426397 0.026807 1.775453
v -1.726650 0.008857 0.245866
v 0.946229 0.529545 1.509619
v -0.297905 0.066830 -1.733787
v 0.939369 0.696624 1.488415
v -0.304765 0.233908 -1.754992
v 0.297905 0.701430 1.733787
v -0.946229 0.238715 -1.509619
v 0.304765 0.534351 1.754992
v -0.939369 0.071636 -1.488415
vt 0.247975 0.958570
vt 0.013667 0.243299
vt 0.000000 0.480503
vt 0.979578 0.118277
vt 0.006307 0.962924
vt 1.000000 0.473108
vt 0.124582 0.965316
vt 0.996655 0.354831
vt 0.118278 0.479071
vt 0.982947 0.236554
vt 0.016447 0.125022
vt 0.028003 0.006745
vt 0.129699 0.960384
vt 0.965472 0.000000
vt 0.000000 0.479853
vt 0.002285 0.361576
vt 0.122510 0.481699
vt 0.240783 0.478244
vt 0.659854 0.238802
vt 0.665199 0.357079
vt 0.666667 0.475356
vt 0.652983 0.002248
vt 0.658535 0.120525
vt 0.336760 0.241051
vt 0.333742 0.359328
vt 0.333333 0.477605
vt 0.340493 0.004497
vt 0.337491 0.122774
vt 0.337491 0.122774
vt 0.336760 0.241051
vt 0.013667 0.243299
vt 0.016447 0.125022
vt 0.340493 0.004497
vt 0.028003 0.006745
vt 0.333742 0.359328
vt 0.333333 0.477605
vt 0.000000 0.479853
vt 0.002285 0.361576
vt 0.118278 0.479071
vt 0.124582 0.965316
vt 0.006307 0.962924
vt 0.000000 0.480503
vt 0.240783 0.478244
vt 0.247975 0.958570
vt 0.129699 0.960384
vt 0.122510 0.481699
vt 0.996655 0.354831
vt 0.665199 0.357079
vt 0.659854 0.238802
vt 0.982947 0.236554
vt 1.000000 0.473108
vt 0.666667 0.475356
vt 0.979578 0.118277
vt 0.658535 0.120525
vt 0.652983 0.002248
vt 0.965472 0.000000
vt 0.982947 0.236554
vt 0.013667 0.243299
vt 0.016447 0.125022
vt 0.979578 0.118277
vt 0.028003 0.006745
vt 0.965472 0.000000
vt 1.000000 0.473108
vt 0.000000 0.479853
vt 0.002285 0.361576
vt 0.996655 0.354831
vt 0.118278 0.479071
vt 0.124582 0.965316
vt 0.006307 0.962924
vt 0.000000 0.480503
vt 0.240783 0.478244
vt 0.247975 0.958570
vt 0.129699 0.960384
vt 0.122510 0.481699
vt 0.982947 0.236554
vt 0.013667 0.243299
vt 0.016447 0.125022
vt 0.979578 0.118277
vt 0.028003 0.006745
vt 0.965472 0.000000
vt 1.000000 0.473108
vt 0.000000 0.479853
vt 0.002285 0.361576
vt 0.996655 0.354831
vt 0.118278 0.479071
vt 0.124582 0.965316
vt 0.006307 0.962924
vt 0.000000 0.480503
vt 0.240783 0.478244
vt 0.247975 0.958570
vt 0.129699 0.960384
vt 0.122510 0.481699
vn 0.190043 0.967815 0.164979
vn -0.007673 -0.961842 0.273497
vn 0.029591 -0.975403 0.218433
vn 0.395193 0.912214 0.108118
vn 0.017727 0.967815 -0.251038
vn 0.202999 0.912213 -0.355891
vn -0.198814 -0.961842 -0.187969
vn -0.133529 -0.975403 -0.175381
vn -0.082824 -0.976827 -0.197358
vn 0.080984 -0.976826 0.198120
vn -0.144937 0.932151 0.331795
vn -0.337098 0.932151 -0.132134
vn -0.044975 -0.966813 -0.251494
vn 0.146028 -0.966813 0.209638
vn -0.137087 0.972713 -0.187179
vn 0.035417 0.972713 0.229291
vn 0.294452 -0.938046 0.182668
vn 0.165797 0.983333 -0.074616
vn 0.116322 0.992784 -0.029146
vn 0.265778 -0.880278 0.393030
vn -0.141510 -0.986619 0.080984
vn -0.220478 -0.934454 0.279615
vn -0.317795 0.929454 -0.187409
vn -0.296373 0.946804 -0.125403
vn -0.309938 0.948040 -0.071827
vn 0.104502 0.994214 0.024837
vn 0.400537 -0.899244 -0.175872
vn -0.085636 -0.953410 -0.289267
vn -0.355923 0.934170 -0.025388
vn 0.127318 0.988011 0.087323
vn -0.103219 -0.991268 -0.082054
vn 0.333219 -0.942643 0.019741
vn 0.143184 -0.973772 -0.176822
vn 0.059223 -0.974250 -0.217553
vn 0.064660 0.965688 -0.251527
vn 0.148621 0.966166 -0.210796
vn -0.143184 0.973772 0.176822
vn -0.059223 0.974250 0.217552
vn -0.148621 -0.966166 0.210796
vn -0.064660 -0.965688 0.251527
vn 0.278414 -0.957110 0.080165
vn 0.245284 -0.969432 -0.006203
vn 0.166327 0.953778 -0.250287
vn 0.199457 0.966099 -0.163919
vn -0.278414 0.957110 -0.080165
vn -0.245284 0.969432 0.006203
vn -0.199457 -0.966099 0.163919
vn -0.166327 -0.953778 0.250287
s 1
usemtl initialShadingGroup
f 16/28/1 13/24/2 2/2/3 4/11/4
f 15/27/5 16/28/1 4/11/4 6/12/6
f 14/25/7 15/26/5 6/15/6 8/16/8
f 13/24/2 14/25/7 8/16/8 2/2/3
f 2/9/3 8/7/8 6/5/6 4/3/4
f 7/18/9 1/1/10 3/13/11 5/17/12
f 7/8/9 10/20/13 9/19/14 1/10/10
f 5/6/12 11/21/15 10/20/13 7/8/9
f 3/4/11 12/23/16 11/22/15 5/14/12
f 1/10/10 9/19/14 12/23/16 3/4/11
f 9/19/14 10/20/13 14/25/7 13/24/2
f 10/20/13 11/21/15 15/26/5 14/25/7
f 11/22/15 12/23/16 16/28/1 15/27/5
f 12/23/16 9/19/14 13/24/2 16/28/1
s 3
f 32/29/17 29/30/18 18/31/19 20/32/20
f 31/33/21 32/29/17 20/32/20 22/34/22
f 30/35/23 31/36/21 22/37/22 24/38/24
f 29/30/18 30/35/23 24/38/24 18/31/19
f 18/39/19 24/40/24 22/41/22 20/42/20
f 23/43/25 17/44/26 19/45/27 21/46/28
f 23/47/25 26/48/29 25/49/30 17/50/26
f 21/51/28 27/52/31 26/48/29 23/47/25
f 19/53/27 28/54/32 27/55/31 21/56/28
f 17/50/26 25/49/30 28/54/32 19/53/27
f 25/49/30 26/48/29 30/35/23 29/30/18
f 26/48/29 27/52/31 31/36/21 30/35/23
f 27/55/31 28/54/32 32/29/17 31/33/21
f 28/54/32 25/49/30 29/30/18 32/29/17
s 5
f 33/57/33 34/58/34 36/59/35 35/60/36
f 35/60/36 36/59/35 38/61/37 37/62/38
f 37/63/38 38/64/37 40/65/39 39/66/40
f 39/66/40 40/65/39 34/58/34 33/57/33
f 34/67/34 40/68/39 38/69/37 36/70/35
f 39/71/40 33/72/33 35/73/36 37/74/38
s 6
f 41/75/41 42/76/42 44/77/43 43/78/44
f 43/78/44 44/77/43 46/79/45 45/80/46
f 45/81/46 46/82/45 48/83/47 47/84/48
f 47/84/48 48/83/47 42/76/42 41/75/41
f 42/85/42 48/86/47 46/87/45 44/88/43
f 47/89/48 41/90/41 43/91/44 45/92/46
