# This file uses centimeters as units for non-parametric coordinates.

mtllib Rib.mtl
v 0.303213 -0.189463 -0.318221
v -0.025042 -0.189463 -0.454262
v -0.353297 -0.189463 -0.318221
v -0.489264 -0.189463 0.010212
v -0.353297 -0.189463 0.338645
v -0.025042 -0.189463 0.474687
v 0.303213 -0.189463 0.338645
v 0.439180 -0.189463 0.010212
v 1.254661 3.271638 -0.253340
v 0.996840 3.348628 -0.364793
v 0.739019 3.425618 -0.253340
v 0.632226 3.457507 0.015730
v 0.739019 3.425618 0.284801
v 0.996840 3.348628 0.396254
v 1.254661 3.271638 0.284801
v 1.361454 3.239748 0.015730
v 1.363138 5.138305 -0.212730
v 1.176011 5.153200 -0.281903
v 0.980586 5.163401 -0.222518
v 0.892903 5.164479 -0.010816
v 0.980586 5.163401 0.200885
v 1.192271 5.160801 0.288575
v 1.403955 5.158193 0.200885
v 1.449623 5.144719 -0.008502
v 1.277022 6.819870 -0.248097
v 1.117697 6.774731 -0.299109
v 0.940250 6.776910 -0.225602
v 0.866748 6.777815 -0.048141
v 0.929261 6.775251 0.103909
v 1.070058 6.770208 0.172760
v 1.244122 6.797493 0.138111
v 1.333531 6.790481 -0.049030
v 0.725633 8.610969 -0.247050
v 0.573160 8.547121 -0.289844
v 0.480510 8.445201 -0.209905
v 0.466110 8.360793 -0.077966
v 0.453539 8.456506 0.056755
v 0.580820 8.382331 0.119345
v 0.747763 8.544944 0.103845
v 0.805879 8.594735 -0.079407
v 0.244374 9.420679 -0.251142
v 0.149737 9.366255 -0.273164
v 0.088316 9.286061 -0.225234
v 0.068616 9.221885 -0.092825
v 0.053229 9.280616 0.058128
v 0.149759 9.318594 0.080802
v 0.253848 9.364124 0.062368
v 0.303501 9.428114 -0.099532
v -0.294106 9.985383 -0.224477
v -0.356536 9.887236 -0.276616
v -0.418965 9.789092 -0.224477
v -0.444826 9.748436 -0.098603
v -0.418965 9.789092 0.027271
v -0.356536 9.887236 0.079410
v -0.282685 9.976191 0.032851
v -0.280465 9.986910 -0.098788
v -0.628648 10.223000 -0.193466
v -0.695420 10.146617 -0.243147
v -0.673355 10.122387 -0.088833
v -0.749267 10.056044 -0.202434
v -0.758647 10.004332 -0.095175
v -0.718063 10.021779 0.015799
v -0.651291 10.098159 0.065480
v -0.597444 10.188735 0.024767
v -0.588065 10.240446 -0.082492
v 0.464311 9.089197 -0.249465
v 0.338571 9.033218 -0.283503
v 0.273656 8.947046 -0.201155
v 0.248483 8.870112 -0.085006
v 0.228623 8.941450 0.050247
v 0.332994 8.929624 0.071901
v 0.455600 9.020423 0.073192
v 0.527022 9.097287 -0.091725
v 0.988938 7.890787 -0.267695
v 0.789165 7.888866 -0.284945
v 0.676812 7.839891 -0.192402
v 0.666090 7.793346 -0.064334
v 0.661331 7.847383 0.048290
v 0.764394 7.790775 0.117824
v 0.949923 7.882203 0.127683
v 1.058123 7.892188 -0.062370
v 1.336051 5.961777 -0.217994
v 1.155633 5.953387 -0.259113
v 1.021865 5.957739 -0.162950
v 0.968204 5.958525 -0.029111
v 0.994239 5.954340 0.115416
v 1.133685 5.949683 0.203656
v 1.329066 5.957698 0.162977
v 1.432438 5.950416 -0.029108
v 1.333307 4.278702 -0.238694
v 1.098338 4.327052 -0.293352
v 0.909116 4.379547 -0.199431
v 0.887190 4.383217 0.001069
v 0.925993 4.375264 0.184366
v 1.104747 4.349268 0.334764
v 1.347932 4.313097 0.249142
v 1.423949 4.265350 0.006670
v 0.857979 1.865644 -0.264566
v 0.591353 1.944730 -0.353721
v 0.337251 2.021085 -0.251783
v 0.276824 2.038603 0.013542
v 0.370676 2.010393 0.243781
v 0.591366 1.944774 0.376386
v 0.870412 1.862509 0.304462
v 0.951417 1.837127 0.013542
vt 0.246399 0.363069
vt 0.291811 0.367008
vt 0.275887 0.591565
vt 0.233169 0.584655
vt 0.335699 0.371797
vt 0.318908 0.599330
vt 0.026321 0.360807
vt 0.362834 0.606131
vt 0.064937 0.359792
vt 0.060435 0.587603
vt 0.106238 0.359047
vt 0.103953 0.583643
vt 0.153044 0.359178
vt 0.147131 0.580346
vt 0.200373 0.360385
vt 0.190291 0.580554
vt 0.550977 0.766847
vt 0.542469 0.736751
vt 0.572138 0.756856
vt 0.560431 0.736589
vt 0.432945 0.724207
vt 0.451140 0.721483
vt 0.468769 0.721919
vt 0.486809 0.725265
vt 0.505452 0.730656
vt 0.225121 0.735461
vt 0.262922 0.742648
vt 0.243890 0.869710
vt 0.213656 0.865323
vt 0.295575 0.751736
vt 0.274759 0.873849
vt 0.037987 0.744076
vt 0.309491 0.878729
vt 0.066798 0.740834
vt 0.076785 0.864230
vt 0.103244 0.737866
vt 0.111727 0.863101
vt 0.143886 0.736530
vt 0.146738 0.864076
vt 0.184196 0.732411
vt 0.179561 0.864186
vt 0.582529 0.005803
vt 0.234046 0.993639
vt 0.598219 0.134339
vt 0.571872 0.135161
vt 0.259580 0.997449
vt 0.626539 0.141318
vt 0.058644 0.990628
vt 0.655702 0.144842
vt 0.081201 0.988059
vt 0.458832 0.131895
vt 0.106821 0.985399
vt 0.482400 0.127606
vt 0.138002 0.985509
vt 0.509696 0.128299
vt 0.172322 0.985888
vt 0.541254 0.126841
vt 0.565783 0.302471
vt 0.594906 0.313083
vt 0.582104 0.419600
vt 0.556355 0.416874
vt 0.618493 0.312483
vt 0.605524 0.412806
vt 0.432991 0.296543
vt 0.628162 0.403828
vt 0.450413 0.304874
vt 0.451909 0.407180
vt 0.467542 0.292188
vt 0.467982 0.388401
vt 0.498848 0.298902
vt 0.500197 0.402304
vt 0.532615 0.297626
vt 0.529582 0.407898
vt 0.548981 0.498063
vt 0.570576 0.502529
vt 0.560298 0.560966
vt 0.544022 0.556619
vt 0.591233 0.498458
vt 0.577444 0.559129
vt 0.433940 0.481540
vt 0.600117 0.555579
vt 0.455559 0.492003
vt 0.459697 0.553267
vt 0.469251 0.482369
vt 0.475411 0.549119
vt 0.493043 0.485621
vt 0.492678 0.545476
vt 0.523041 0.492112
vt 0.520093 0.549920
vt 0.549332 0.671652
vt 0.530069 0.673195
vt 0.568676 0.670528
vt 0.433118 0.660119
vt 0.453758 0.661873
vt 0.472650 0.666028
vt 0.491242 0.668182
vt 0.511129 0.670572
vt 0.268678 0.035959
vt 0.322319 0.025734
vt 0.376308 0.017344
vt 0.431011 0.018697
vt 0.054642 0.002918
vt 0.107587 0.016333
vt 0.160037 0.031462
vt 0.214139 0.038983
vt 0.377498 0.376679
vt 0.016159 0.590203
vt 0.326315 0.757054
vt 0.041880 0.867243
vt 0.281775 1.000000
vt 0.433653 0.134131
vt 0.639040 0.307565
vt 0.430633 0.392682
vt 0.612458 0.492545
vt 0.436069 0.544564
vt 0.565366 0.778267
vt 0.524403 0.734606
vt 0.583710 0.777186
vt 0.595290 0.764223
vt 0.593335 0.746952
vt 0.579001 0.735445
vt 0.589302 0.671524
vt 0.548938 0.749600
vt 0.000000 0.000000
vt 0.549662 0.000489
vt 0.205189 0.991203
vt 0.515341 0.000109
vt 0.484161 0.000000
vt 0.458541 0.002659
vt 0.659114 0.014601
vt 0.435984 0.005228
vt 0.636919 0.012049
vt 0.611385 0.008239
vn 0.682505 -0.173257 -0.710048
vn -0.013021 0.029105 -0.999492
vn -0.000780 0.023423 -0.999725
vn 0.697852 -0.132649 -0.703851
vn -0.699989 0.225531 -0.677606
vn -0.702564 0.185348 -0.687059
vn -0.954672 0.295903 0.032288
vn -0.968939 0.245526 0.029553
vn -0.698724 0.223128 0.679704
vn -0.709376 0.180615 0.681296
vn -0.056304 0.038920 0.997655
vn -0.033716 0.031171 0.998945
vn 0.680019 -0.174757 0.712064
vn 0.701058 -0.128890 0.701360
vn 0.965850 -0.258870 -0.010955
vn 0.980721 -0.195188 -0.009386
vn 0.312189 0.721217 -0.618371
vn -0.156496 0.140367 -0.977653
vn -0.798837 0.566215 0.203124
vn -0.568937 -0.440774 -0.694283
vn -0.724454 -0.687953 -0.043440
vn -0.578254 -0.506269 0.639776
vn -0.155549 0.070289 0.985324
vn 0.338335 0.709299 0.618405
vn 0.490344 0.871313 0.019402
vn 0.698659 -0.023037 -0.715084
vn -0.029854 0.047391 -0.998430
vn -0.029520 0.024926 -0.999253
vn 0.693553 0.000727 -0.720405
vn -0.738766 0.122831 -0.662675
vn -0.726563 0.053154 -0.685040
vn -0.987619 0.155515 0.020567
vn -0.998246 0.058915 -0.005885
vn -0.756316 0.141011 0.638828
vn -0.750998 0.067907 0.656804
vn -0.052894 0.067434 0.996321
vn -0.038605 0.069135 0.996860
vn 0.724616 -0.020232 0.688856
vn 0.729037 0.037413 0.683451
vn 0.998224 -0.054122 -0.024890
vn 0.998615 0.001576 -0.052589
vn 0.693279 0.028022 -0.720125
vn -0.083865 -0.010078 -0.996426
vn -0.100161 -0.039053 -0.994205
vn 0.706870 0.124812 -0.696245
vn -0.735808 -0.020582 -0.676877
vn -0.728251 -0.140877 -0.670674
vn -0.998452 -0.012703 -0.054150
vn -0.983953 -0.170608 -0.052239
vn -0.767125 0.020309 0.641176
vn -0.775436 -0.110986 0.621596
vn -0.092429 0.063866 0.993669
vn -0.133301 0.009856 0.991027
vn 0.660347 0.091954 0.745310
vn 0.608318 0.138456 0.781524
vn 0.997396 0.072123 0.000462
vn 0.980650 0.180428 0.075970
vn 0.654295 0.196425 -0.730284
vn -0.152478 -0.037365 -0.987600
vn -0.133887 -0.043502 -0.990041
vn 0.626295 0.281222 -0.727096
vn -0.742859 -0.202504 -0.638085
vn -0.729728 -0.280262 -0.623659
vn -0.969606 -0.240576 -0.044579
vn -0.934307 -0.346790 -0.082505
vn -0.819970 -0.226457 0.525706
vn -0.791045 -0.308650 0.528187
vn -0.198722 -0.024423 0.979751
vn -0.184514 -0.036984 0.982134
vn 0.551800 0.178357 0.814681
vn 0.527612 0.258956 0.809054
vn 0.956376 0.280981 0.079968
vn 0.914537 0.401325 0.050604
vn 0.605217 0.359022 -0.710504
vn -0.130462 -0.054605 -0.989948
vn -0.050279 -0.030200 -0.998278
vn 0.588687 0.525781 -0.614005
vn -0.701612 -0.337036 -0.627812
vn -0.580967 -0.486341 -0.652648
vn -0.901621 -0.414080 -0.124972
vn -0.794993 -0.597462 -0.105001
vn -0.752586 -0.360454 0.551079
vn -0.600315 -0.480010 0.639697
vn -0.119815 -0.008459 0.992760
vn -0.000374 0.020828 0.999783
vn 0.476229 0.322323 0.818116
vn 0.546425 0.458898 0.700595
vn 0.852327 0.516481 0.082378
vn 0.759750 0.646123 0.072827
vn -0.025274 0.018211 -0.999515
vn 0.524225 0.607877 -0.596384
vn -0.503812 -0.521948 -0.688290
vn -0.692614 -0.719577 -0.049943
vn -0.531312 -0.530752 0.660311
vn -0.009165 0.022726 0.999700
vn 0.530418 0.573748 0.624075
vn 0.680547 0.731650 0.039293
vn 0.649626 -0.150141 -0.745281
vn -0.075328 0.063462 -0.995137
vn -0.732135 0.255515 -0.631420
vn -0.946566 0.321131 0.029783
vn -0.722196 0.260896 0.640599
vn -0.118742 0.079094 0.989770
vn 0.644070 -0.154189 0.749266
vn 0.968007 -0.250688 -0.010858
s 1
usemtl initialShadingGroup
f 98/1/1 99/2/2 10/3/3 9/4/4
f 99/2/2 100/5/5 11/6/6 10/3/3
f 100/5/5 101/106/7 12/8/8 11/6/6
f 101/7/7 102/9/9 13/10/10 12/107/8
f 102/9/9 103/11/11 14/12/12 13/10/10
f 103/11/11 104/13/13 15/14/14 14/12/12
f 104/13/13 105/15/15 16/16/16 15/14/14
f 105/15/15 98/1/1 9/4/4 16/16/16
f 57/17/17 58/123/18 59/19/19
f 58/123/18 60/20/20 59/19/19
f 60/20/20 61/121/21 59/19/19
f 61/121/21 62/120/22 59/19/19
f 62/120/22 63/119/23 59/19/19
f 63/119/23 64/118/24 59/19/19
f 64/118/24 65/116/25 59/19/19
f 65/116/25 57/17/17 59/19/19
f 90/26/26 91/27/27 18/28/28 17/29/29
f 91/27/27 92/30/30 19/31/31 18/28/28
f 92/30/30 93/108/32 20/33/33 19/31/31
f 93/32/32 94/34/34 21/35/35 20/109/33
f 94/34/34 95/36/36 22/37/37 21/35/35
f 95/36/36 96/38/38 23/39/39 22/37/37
f 96/38/38 97/40/40 24/41/41 23/39/39
f 97/40/40 90/26/26 17/29/29 24/41/41
f 82/42/42 83/133/43 26/44/44 25/45/45
f 83/133/43 84/132/46 27/47/47 26/44/44
f 84/132/46 85/130/48 28/49/49 27/47/47
f 85/131/48 86/129/50 29/51/51 28/111/49
f 86/129/50 87/128/52 30/53/53 29/51/51
f 87/128/52 88/127/54 31/55/55 30/53/53
f 88/127/54 89/125/56 32/57/57 31/55/55
f 89/125/56 82/42/42 25/45/45 32/57/57
f 74/58/58 75/59/59 34/60/60 33/61/61
f 75/59/59 76/62/62 35/63/63 34/60/60
f 76/62/62 77/112/64 36/65/65 35/63/63
f 77/64/64 78/66/66 37/67/67 36/113/65
f 78/66/66 79/68/68 38/69/69 37/67/67
f 79/68/68 80/70/70 39/71/71 38/69/69
f 80/70/70 81/72/72 40/73/73 39/71/71
f 81/72/72 74/58/58 33/61/61 40/73/73
f 66/74/74 67/75/75 42/76/76 41/77/77
f 67/75/75 68/78/78 43/79/79 42/76/76
f 68/78/78 69/114/80 44/81/81 43/79/79
f 69/80/80 70/82/82 45/83/83 44/115/81
f 70/82/82 71/84/84 46/85/85 45/83/83
f 71/84/84 72/86/86 47/87/87 46/85/85
f 72/86/86 73/88/88 48/89/89 47/87/87
f 73/88/88 66/74/74 41/77/77 48/89/89
f 41/77/77 42/76/76 50/90/90 49/91/91
f 42/76/76 43/79/79 51/92/92 50/90/90
f 43/79/79 44/81/81 52/122/93 51/92/92
f 44/115/81 45/83/83 53/94/94 52/93/93
f 45/83/83 46/85/85 54/95/95 53/94/94
f 46/85/85 47/87/87 55/96/96 54/95/95
f 47/87/87 48/89/89 56/97/97 55/96/96
f 48/89/89 41/77/77 49/91/91 56/97/97
f 49/91/91 50/90/90 58/18/18 57/117/17
f 50/90/90 51/92/92 60/20/20 58/18/18
f 51/92/92 52/122/93 61/121/21 60/20/20
f 52/93/93 53/94/94 62/22/22 61/21/21
f 53/94/94 54/95/95 63/23/23 62/22/22
f 54/95/95 55/96/96 64/24/24 63/23/23
f 55/96/96 56/97/97 65/25/25 64/24/24
f 56/97/97 49/91/91 57/117/17 65/25/25
f 33/61/61 34/60/60 67/75/75 66/74/74
f 34/60/60 35/63/63 68/78/78 67/75/75
f 35/63/63 36/65/65 69/114/80 68/78/78
f 36/113/65 37/67/67 70/82/82 69/80/80
f 37/67/67 38/69/69 71/84/84 70/82/82
f 38/69/69 39/71/71 72/86/86 71/84/84
f 39/71/71 40/73/73 73/88/88 72/86/86
f 40/73/73 33/61/61 66/74/74 73/88/88
f 25/45/45 26/44/44 75/59/59 74/58/58
f 26/44/44 27/47/47 76/62/62 75/59/59
f 27/47/47 28/49/49 77/112/64 76/62/62
f 28/111/49 29/51/51 78/66/66 77/64/64
f 29/51/51 30/53/53 79/68/68 78/66/66
f 30/53/53 31/55/55 80/70/70 79/68/68
f 31/55/55 32/57/57 81/72/72 80/70/70
f 32/57/57 25/45/45 74/58/58 81/72/72
f 17/29/29 18/28/28 83/43/43 82/126/42
f 18/28/28 19/31/31 84/46/46 83/43/43
f 19/31/31 20/33/33 85/110/48 84/46/46
f 20/109/33 21/35/35 86/50/50 85/48/48
f 21/35/35 22/37/37 87/52/52 86/50/50
f 22/37/37 23/39/39 88/54/54 87/52/52
f 23/39/39 24/41/41 89/56/56 88/54/54
f 24/41/41 17/29/29 82/126/42 89/56/56
f 9/4/4 10/3/3 91/27/27 90/26/26
f 10/3/3 11/6/6 92/30/30 91/27/27
f 11/6/6 12/8/8 93/108/32 92/30/30
f 12/107/8 13/10/10 94/34/34 93/32/32
f 13/10/10 14/12/12 95/36/36 94/34/34
f 14/12/12 15/14/14 96/38/38 95/36/36
f 15/14/14 16/16/16 97/40/40 96/38/38
f 16/16/16 9/4/4 90/26/26 97/40/40
f 1/98/98 2/99/99 99/2/2 98/1/1
f 2/99/99 3/100/100 100/5/5 99/2/2
f 3/100/100 4/101/101 101/106/7 100/5/5
f 4/124/101 5/102/102 102/9/9 101/7/7
f 5/102/102 6/103/103 103/11/11 102/9/9
f 6/103/103 7/104/104 104/13/13 103/11/11
f 7/104/104 8/105/105 105/15/15 104/13/13
f 8/105/105 1/98/98 98/1/1 105/15/15
