# This file uses centimeters as units for non-parametric coordinates.

mtllib Rib_LOD1.mtl
v 0.303213 -0.189463 -0.318221
v -0.353297 -0.189463 -0.318221
v -0.353297 -0.189463 0.338645
v 0.303213 -0.189463 0.338645
v 1.277022 6.819870 -0.248097
v 0.940250 6.776910 -0.225602
v 0.929261 6.775251 0.103909
v 1.244122 6.797493 0.138111
v 0.725633 8.610969 -0.247050
v 0.480510 8.445201 -0.209905
v 0.453539 8.456506 0.056755
v 0.747763 8.544944 0.103845
v 0.244374 9.420679 -0.251142
v 0.088316 9.286061 -0.225234
v 0.053229 9.280616 0.058128
v 0.253848 9.364124 0.062368
v -0.628648 10.223000 -0.193466
v -0.673355 10.122387 -0.088833
v -0.749267 10.056044 -0.202434
v -0.718063 10.021779 0.015799
v -0.597444 10.188735 0.024767
v 1.333307 4.278702 -0.238694
v 0.909116 4.379547 -0.199431
v 0.925993 4.375264 0.184366
v 1.347932 4.313097 0.249142
v 0.857979 1.865644 -0.264566
v 0.337251 2.021085 -0.251783
v 0.370676 2.010393 0.243781
v 0.870412 1.862509 0.304462
vt 0.246399 0.363069
vt 0.335699 0.371797
vt 0.064937 0.359792
vt 0.153044 0.359178
vt 0.550977 0.766847
vt 0.572138 0.756856
vt 0.560431 0.736589
vt 0.451140 0.721483
vt 0.486809 0.725265
vt 0.225121 0.735461
vt 0.295575 0.751736
vt 0.066798 0.740834
vt 0.143886 0.736530
vt 0.571872 0.135161
vt 0.626539 0.141318
vt 0.458832 0.131895
vt 0.509696 0.128299
vt 0.556355 0.416874
vt 0.605524 0.412806
vt 0.451909 0.407180
vt 0.500197 0.402304
vt 0.544022 0.556619
vt 0.577444 0.559129
vt 0.459697 0.553267
vt 0.492678 0.545476
vt 0.268678 0.035959
vt 0.376308 0.017344
vt 0.054642 0.002918
vt 0.160037 0.031462
vt 0.524403 0.734606
vt 0.583710 0.777186
vt 0.593335 0.746952
vn -0.798836 0.566217 0.203125
vn 0.515619 0.626338 -0.584668
vn -0.510108 -0.465402 -0.723319
vn -0.596712 -0.563124 0.571687
vn 0.541284 0.636111 0.549886
vn -0.666345 -0.069185 -0.742427
vn 0.768477 0.102191 -0.631665
vn 0.747972 -0.067014 -0.660339
vn -0.682162 0.093072 -0.725253
vn -0.714631 -0.047848 0.697863
vn -0.685153 0.112372 0.719679
vn 0.747173 0.115702 0.654481
vn 0.739455 -0.042503 0.671863
vn 0.744814 0.300102 -0.595979
vn -0.648046 -0.219490 -0.729287
vn -0.713833 -0.229859 0.661519
vn 0.710656 0.278412 0.646107
vn 0.631073 0.538084 -0.558760
vn -0.569316 -0.403278 -0.716412
vn -0.618637 -0.435194 0.654136
vn 0.608512 0.497867 0.617933
vn 0.700271 -0.148722 -0.698214
vn -0.683468 0.209767 -0.699192
vn -0.681024 0.209787 0.701566
vn 0.698982 -0.144108 0.700469
vn 0.617674 -0.147044 -0.772565
vn -0.751618 0.258844 -0.606687
vn -0.746076 0.256908 0.614304
vn 0.615044 -0.143119 0.775395
s 1
usemtl initialShadingGroup
f 18/6/1 17/5/2 19/7/3
f 18/6/1 19/7/3 20/32/4
f 18/6/1 20/32/4 21/31/5
f 18/6/1 21/31/5 17/5/2
f 6/15/6 5/14/7 22/10/8 23/11/9
f 7/16/10 6/15/6 23/11/9 24/12/11
f 8/17/12 7/16/10 24/12/11 25/13/13
f 5/14/7 8/17/12 25/13/13 22/10/8
f 9/18/14 5/14/7 6/15/6 10/19/15
f 10/19/15 6/15/6 7/16/10 11/20/16
f 11/20/16 7/16/10 8/17/12 12/21/17
f 12/21/17 8/17/12 5/14/7 9/18/14
f 13/22/18 9/18/14 10/19/15 14/23/19
f 14/23/19 10/19/15 11/20/16 15/24/20
f 15/24/20 11/20/16 12/21/17 16/25/21
f 16/25/21 12/21/17 9/18/14 13/22/18
f 17/30/2 13/22/18 14/23/19 19/7/3
f 19/7/3 14/23/19 15/24/20 20/8/4
f 20/8/4 15/24/20 16/25/21 21/9/5
f 21/9/5 16/25/21 13/22/18 17/30/2
f 23/11/9 22/10/8 26/1/22 27/2/23
f 24/12/11 23/11/9 27/2/23 28/3/24
f 25/13/13 24/12/11 28/3/24 29/4/25
f 22/10/8 25/13/13 29/4/25 26/1/22
f 26/1/22 1/26/26 2/27/27 27/2/23
f 27/2/23 2/27/27 3/28/28 28/3/24
f 28/3/24 3/28/28 4/29/29 29/4/25
f 29/4/25 4/29/29 1/26/26 26/1/22
