# This file uses centimeters as units for non-parametric coordinates.

mtllib Post.mtl
v 0.103960 2.361798 0.517997
v 0.150426 2.361798 0.517997
v 0.103960 2.572179 0.484483
v 0.150426 2.572179 0.484483
v 0.103960 2.475717 -0.121042
v 0.150426 2.475717 -0.121042
v 0.103960 2.265336 -0.087527
v 0.150426 2.265336 -0.087527
v 0.103960 1.518492 0.460783
v 0.150426 1.518492 0.460783
v 0.103960 1.629684 0.279069
v 0.150426 1.629684 0.279069
v 0.103960 1.106670 -0.040965
v 0.150426 1.106670 -0.040965
v 0.103960 0.995479 0.140749
v 0.150426 0.995479 0.140749
v 0.103960 2.510034 1.056473
v 0.150426 2.510034 1.056473
v 0.103960 2.621225 0.874759
v 0.150426 2.621225 0.874759
v 0.103960 2.098211 0.554726
v 0.150426 2.098211 0.554726
v 0.103960 1.987020 0.736440
v 0.150426 1.987020 0.736440
v -0.103960 2.361798 0.517997
v -0.150426 2.361798 0.517997
v -0.103960 2.572179 0.484483
v -0.150426 2.572179 0.484483
v -0.103960 2.475717 -0.121042
v -0.150426 2.475717 -0.121042
v -0.103960 2.265336 -0.087527
v -0.150426 2.265336 -0.087527
v -0.103960 1.518492 0.460783
v -0.150426 1.518492 0.460783
v -0.103960 1.629684 0.279069
v -0.150426 1.629684 0.279069
v -0.103960 1.106670 -0.040965
v -0.150426 1.106670 -0.040965
v -0.103960 0.995479 0.140749
v -0.150426 0.995479 0.140749
v -0.103960 2.510034 1.056473
v -0.150426 2.510034 1.056473
v -0.103960 2.621225 0.874759
v -0.150426 2.621225 0.874759
v -0.103960 2.098211 0.554726
v -0.150426 2.098211 0.554726
v -0.103960 1.987020 0.736440
v -0.150426 1.987020 0.736440
v -0.102833 2.536628 1.940107
v 0.102833 2.536628 1.940107
v -0.102833 2.847213 1.886776
v 0.102833 2.847213 1.886776
v -0.102833 2.557409 0.199041
v 0.102833 2.557409 0.199041
v -0.102833 2.246824 0.252372
v 0.102833 2.246824 0.252372
v -0.113358 -2.484041 0.169974
v 0.113358 -2.484041 0.169974
v -0.100837 -1.682740 0.169974
v 0.125879 -1.682740 0.169974
v -0.100837 -1.682740 -0.169974
v 0.125879 -1.682740 -0.169974
v -0.113358 -2.484041 -0.169974
v 0.113358 -2.484041 -0.169974
v -0.066192 -1.114867 0.184397
v 0.160525 -1.114867 0.184397
v 0.160525 -1.114867 -0.155552
v -0.066192 -1.114867 -0.155552
v -0.099742 -0.671355 0.196016
v 0.126974 -0.671355 0.196016
v 0.126974 -0.671355 -0.143933
v -0.099742 -0.671355 -0.143933
v -0.072690 -0.089991 0.203873
v 0.154027 -0.089991 0.203873
v 0.154027 -0.089991 -0.136076
v -0.072690 -0.089991 -0.136076
v -0.072690 0.471825 0.213326
v 0.154027 0.471825 0.213326
v 0.154027 0.471825 -0.126623
v -0.072690 0.471825 -0.126623
v -0.106203 1.074700 0.213326
v 0.120514 1.074700 0.213326
v 0.120514 1.074700 -0.126623
v -0.106203 1.074700 -0.126623
v -0.125948 1.463881 0.199415
v 0.100768 1.463881 0.199415
v 0.100768 1.463881 -0.140534
v -0.125948 1.463881 -0.140534
v -0.125948 1.880846 0.194369
v 0.100768 1.880846 0.194369
v 0.100768 1.880846 -0.145579
v -0.125948 1.880846 -0.145579
v -0.115522 2.168589 0.215032
v 0.111194 2.168589 0.215032
v 0.111194 2.168589 -0.124917
v -0.115522 2.168589 -0.124917
v -0.115522 2.540611 0.171392
v 0.111194 2.540611 0.171392
v 0.111194 2.495925 -0.165607
v -0.115522 2.495925 -0.165607
v -0.091887 2.360481 0.999030
v 0.091911 2.360481 0.999030
v -0.091887 2.308947 0.654860
v 0.091911 2.308947 0.654860
v -0.091887 1.589904 0.218797
v 0.091911 1.589904 0.218797
v -0.091887 1.076336 0.241533
v 0.091911 1.076336 0.241533
v 0.020574 2.357385 1.870238
v 0.028580 2.340493 1.852704
v 0.026052 2.372128 1.840108
v 0.016164 2.377593 1.858159
v 0.024999 2.311806 1.803701
v 0.015838 2.340531 1.788636
v 0.024833 2.312733 1.742109
v 0.008503 2.339532 1.743666
v 0.022497 2.349518 1.686273
v 0.010047 2.367824 1.701698
v 0.019441 2.394532 1.653659
v 0.013909 2.414578 1.674127
v 0.017614 2.481778 1.620361
v 0.015293 2.488589 1.652173
v -0.012600 2.488586 1.652665
v -0.011057 2.416748 1.675166
v -0.010031 2.368500 1.701510
v -0.011018 2.338672 1.743473
v -0.008053 2.340528 1.786045
v -0.000175 2.371327 1.835450
v 0.002899 2.378422 1.851403
v -0.019282 2.407656 1.652807
v -0.020144 2.479752 1.628585
v -0.021350 2.353904 1.683261
v -0.020682 2.309673 1.732762
v -0.016532 2.311236 1.787851
v -0.011556 2.351747 1.845960
v -0.008436 2.365713 1.858872
v -0.012489 2.404720 1.643714
v -0.008438 2.476846 1.616734
v -0.011531 2.346099 1.670364
v -0.008606 2.298094 1.732235
v -0.002819 2.300095 1.787714
v 0.000189 2.332583 1.850393
v 0.002839 2.347019 1.868361
v 0.004761 2.338823 1.671165
v 0.005037 2.399317 1.640861
v 0.008447 2.473352 1.616571
v 0.012806 2.297365 1.738365
v 0.016727 2.305461 1.802154
v 0.019791 2.333055 1.851788
v 0.017311 2.347559 1.869123
v 0.005410 2.366274 1.872037
vt 0.889863 0.659839
vt 0.869163 0.668199
vt 0.760156 0.666483
vt 0.740341 0.655574
vt 0.751824 0.987357
vt 0.731122 0.995713
vt 0.860832 0.989082
vt 0.880641 1.000000
vt 0.589349 0.929453
vt 0.603675 0.922892
vt 0.680592 0.920593
vt 0.694915 0.927646
vt 0.676135 0.694073
vt 0.690463 0.687515
vt 0.599217 0.696367
vt 0.584898 0.689306
vt 0.584898 0.683118
vt 0.606004 0.674910
vt 0.716551 0.678082
vt 0.736507 0.689407
vt 0.729217 0.352717
vt 0.750325 0.344513
vt 0.618669 0.349535
vt 0.598719 0.338201
vt 0.416740 0.323849
vt 0.580381 0.321999
vt 0.558501 0.333562
vt 0.439223 0.333392
vt 0.584070 0.694260
vt 0.561580 0.684731
vt 0.420421 0.696138
vt 0.442298 0.684571
vt 0.480768 0.950605
vt 0.369217 0.950135
vt 0.384252 0.942486
vt 0.465545 0.943863
vt 0.370641 0.696378
vt 0.385868 0.703110
vt 0.482197 0.696829
vt 0.467164 0.704481
vt 0.415389 0.696270
vt 0.248939 0.696659
vt 0.271298 0.685099
vt 0.392609 0.686359
vt 0.248582 0.318016
vt 0.271368 0.327912
vt 0.415038 0.317598
vt 0.392682 0.329162
vt 0.005882 0.121920
vt 0.049545 0.099906
vt 0.089606 0.088198
vt 0.196006 0.082755
vt 0.312598 0.086600
vt 0.754535 0.133896
vt 0.459420 0.095066
vt 0.588772 0.112875
vt 0.000000 0.057237
vt 0.035415 0.078571
vt 0.077858 0.052712
vt 0.045900 0.015406
vt 0.216104 0.000000
vt 0.223148 0.039333
vt 0.339785 0.007937
vt 0.329069 0.041237
vt 0.475848 0.060322
vt 0.476332 0.022041
vt 0.766234 0.059749
vt 0.603262 0.047562
vt 0.602041 0.073663
vt 0.765539 0.097185
vt 0.011317 0.196469
vt 0.049630 0.247408
vt 0.336333 0.801694
vt 0.366125 0.801590
vt 0.366283 0.847238
vt 0.336492 0.847341
vt 0.335967 0.696463
vt 0.336071 0.726255
vt 0.088018 0.727118
vt 0.087915 0.697327
vt 0.088440 0.848205
vt 0.058649 0.848308
vt 0.058490 0.802661
vt 0.088281 0.802557
vt 0.088177 0.772766
vt 0.336230 0.771902
vt 0.841506 0.000514
vt 0.869348 0.001329
vt 0.868276 0.100282
vt 0.840395 0.099256
vt 0.791906 0.656906
vt 0.764023 0.656152
vt 0.765234 0.614312
vt 0.793004 0.615101
vt 0.798756 0.098319
vt 0.770999 0.098913
vt 0.771667 0.000205
vt 0.799619 0.000000
vt 0.911056 0.001701
vt 0.910254 0.100039
vt 0.868205 0.170090
vt 0.840157 0.169611
vt 0.909910 0.169652
vt 0.797616 0.168535
vt 0.769450 0.168484
vt 0.866784 0.224651
vt 0.839170 0.224521
vt 0.908697 0.224446
vt 0.798151 0.223145
vt 0.770547 0.222890
vt 0.866662 0.296360
vt 0.838739 0.295777
vt 0.908455 0.295967
vt 0.796687 0.294863
vt 0.768707 0.294867
vt 0.865987 0.364848
vt 0.838005 0.365189
vt 0.907893 0.365136
vt 0.796015 0.364543
vt 0.768081 0.363625
vt 0.864906 0.438549
vt 0.837246 0.439441
vt 0.906556 0.439734
vt 0.795466 0.439328
vt 0.767679 0.437759
vt 0.864503 0.486751
vt 0.836403 0.487001
vt 0.906458 0.487863
vt 0.794741 0.487187
vt 0.767006 0.486164
vt 0.864133 0.538404
vt 0.835766 0.538134
vt 0.906258 0.539212
vt 0.794006 0.538042
vt 0.766214 0.538207
vt 0.863008 0.573647
vt 0.836214 0.572915
vt 0.904093 0.575116
vt 0.794511 0.573928
vt 0.766261 0.573869
vt 0.863622 0.618938
vt 0.834872 0.618617
vt 0.905767 0.616071
vt 0.044244 0.734590
vt 0.012917 0.698502
vt 0.081246 0.639186
vt 0.112574 0.675273
vt 0.129024 0.638176
vt 0.076627 0.420586
vt 0.124405 0.419576
vt 0.115783 0.393189
vt 0.000000 0.311070
vt 0.039156 0.283673
vt 0.196337 0.306921
vt 0.244124 0.306495
vt 0.247585 0.694127
vt 0.199798 0.694553
vt 0.039811 0.114936
vt 0.087261 0.107534
vt 0.076731 0.162338
vt 0.040040 0.154050
vt 0.190572 0.104683
vt 0.204678 0.181852
vt 0.309475 0.129443
vt 0.316456 0.199473
vt 0.444271 0.206492
vt 0.444903 0.148673
vt 0.563238 0.149669
vt 0.577448 0.210185
vt 0.766028 0.159525
vt 0.750278 0.227902
vt 0.742891 0.286855
vt 0.573818 0.265306
vt 0.441234 0.251248
vt 0.313430 0.245308
vt 0.204435 0.236047
vt 0.070516 0.205165
vt 0.037479 0.180295
vt 0.734634 0.343716
vt 0.569921 0.320399
vt 0.441421 0.306761
vt 0.309755 0.317861
vt 0.205292 0.299550
vn 0.000000 -0.881218 0.472711
vn 0.974362 -0.198263 0.106354
vn 0.974362 0.221495 0.039485
vn 0.000000 0.984480 0.175500
vn 0.974362 0.198263 -0.106354
vn 0.000000 0.881218 -0.472711
vn 0.974362 -0.221495 -0.039485
vn 0.000000 -0.984480 -0.175500
vn 0.000000 -0.213090 0.977033
vn 0.974362 -0.047942 0.219820
vn 0.974362 0.173909 -0.142741
vn 0.000000 0.772973 -0.634439
vn 0.974362 0.047943 -0.219820
vn 0.000000 0.213090 -0.977033
vn 0.974362 -0.173909 0.142741
vn 0.000000 -0.772973 0.634439
vn 0.000000 -0.213090 0.977033
vn 0.974362 -0.047942 0.219820
vn 0.974362 0.173909 -0.142741
vn 0.000000 0.772973 -0.634439
vn 0.974362 0.047942 -0.219820
vn 0.000000 0.213090 -0.977033
vn 0.974362 -0.173909 0.142741
vn 0.000000 -0.772973 0.634439
vn 0.000000 -0.881218 0.472711
vn 0.000000 0.984480 0.175500
vn -0.974362 0.221495 0.039485
vn -0.974362 -0.198263 0.106354
vn 0.000000 0.881218 -0.472711
vn -0.974362 0.198263 -0.106354
vn 0.000000 -0.984480 -0.175500
vn -0.974362 -0.221495 -0.039485
vn 0.000000 -0.213090 0.977033
vn 0.000000 0.772973 -0.634439
vn -0.974362 0.173909 -0.142741
vn -0.974362 -0.047943 0.219820
vn 0.000000 0.213090 -0.977033
vn -0.974362 0.047942 -0.219820
vn 0.000000 -0.772973 0.634439
vn -0.974362 -0.173909 0.142741
vn 0.000000 -0.213090 0.977033
vn 0.000000 0.772973 -0.634439
vn -0.974362 0.173909 -0.142741
vn -0.974362 -0.047943 0.219820
vn 0.000000 0.213090 -0.977033
vn -0.974362 0.047942 -0.219820
vn 0.000000 -0.772973 0.634439
vn -0.974362 -0.173909 0.142741
vn -0.833230 -0.519016 0.190658
vn 0.833230 -0.519016 0.190658
vn 0.833230 0.552887 0.006599
vn -0.833230 0.552887 0.006599
vn 0.833230 0.519016 -0.190658
vn -0.833230 0.519016 -0.190658
vn 0.833230 -0.552887 -0.006599
vn -0.833230 -0.552887 -0.006599
vn -0.834431 0.013039 0.550958
vn 0.829338 -0.012959 0.558598
vn 0.830545 -0.034778 0.555865
vn -0.836038 0.023340 0.548174
vn -0.720201 0.526012 0.452352
vn 0.720201 0.526012 0.452352
vn 0.743602 0.416563 -0.523002
vn -0.743602 0.416563 -0.523003
vn -0.832389 0.034185 -0.553136
vn 0.827376 -0.022276 -0.561206
vn 0.829338 -0.012959 -0.558598
vn -0.834431 0.013039 -0.550958
vn 0.842393 -0.013850 0.538685
vn -0.820406 -0.014737 0.571592
vn 0.843276 0.011994 -0.537346
vn -0.821330 0.016475 -0.570216
vn 0.821683 -0.006275 0.569910
vn -0.840900 -0.014942 0.540984
vn 0.822821 0.016664 -0.568056
vn -0.842126 0.004241 -0.539265
vn 0.835708 -0.027908 0.548465
vn -0.828281 0.010946 0.560206
vn 0.835527 -0.011628 -0.549326
vn -0.827535 0.028246 -0.560703
vn 0.835174 0.019612 0.549636
vn -0.825577 -0.028371 0.563575
vn 0.837589 0.028488 -0.545558
vn -0.828454 -0.019254 -0.559725
vn 0.826252 0.051924 0.560903
vn -0.831379 -0.036557 0.554502
vn 0.831402 0.037154 -0.554429
vn -0.835289 -0.052813 -0.547268
vn 0.829295 0.033851 0.557784
vn -0.837659 -0.008101 0.546134
vn 0.826117 0.006559 -0.563461
vn -0.833717 -0.032952 -0.551208
vn 0.835143 -0.025056 0.549461
vn -0.840096 0.000936 0.542437
vn 0.823407 0.000935 -0.567450
vn -0.828098 0.024118 -0.560065
vn 0.808958 0.007679 0.587817
vn -0.802871 0.033425 0.595215
vn 0.858118 -0.031038 -0.512514
vn -0.853608 -0.002687 -0.520909
vn -0.606055 -0.252887 0.754152
vn 0.606055 -0.252887 0.754152
vn 0.917096 0.283649 -0.280139
vn -0.917096 0.283649 -0.280139
vn 0.909429 0.132213 -0.394283
vn -0.909429 0.132213 -0.394283
vn 0.505795 -0.613774 0.606178
vn -0.505795 -0.613774 0.606178
vn 0.775234 0.146250 0.614511
vn 0.999557 -0.026318 0.013876
vn 0.799348 0.527917 -0.286961
vn 0.676989 0.703016 0.217841
vn 0.992114 -0.119429 -0.038026
vn 0.743907 0.610535 -0.271753
vn 0.985911 -0.123983 -0.112286
vn 0.663235 0.716419 0.216478
vn 0.654160 0.520201 0.549058
vn 0.977427 -0.127127 -0.168748
vn 0.968723 -0.106341 -0.224206
vn 0.751910 0.254168 0.608301
vn 0.990360 -0.047456 -0.130131
vn 0.754076 0.196555 0.626686
vn -0.562191 0.235434 0.792787
vn -0.589910 0.299078 0.750039
vn -0.673245 0.486329 0.556980
vn -0.766039 0.598846 0.233596
vn -0.705277 0.685306 -0.181494
vn -0.501541 0.768451 -0.397417
vn -0.379396 0.912901 -0.150569
vn -0.998938 -0.024876 -0.038779
vn -0.999214 -0.012427 -0.037644
vn -0.996744 -0.058310 -0.055686
vn -0.978294 -0.202081 -0.045880
vn -0.969168 -0.192899 0.153306
vn -0.990834 -0.015385 0.134206
vn -0.937587 0.216552 0.272095
vn -0.458325 -0.283755 -0.842272
vn -0.487240 -0.319589 -0.812687
vn -0.449446 -0.569641 -0.688119
vn -0.335468 -0.892829 -0.300528
vn -0.337363 -0.909649 0.242332
vn -0.464264 -0.736450 0.492037
vn -0.465815 -0.502306 0.728495
vn 0.222609 -0.377213 -0.898975
vn 0.306285 -0.661216 -0.684824
vn 0.252344 -0.321922 -0.912518
vn 0.388397 -0.882418 -0.265494
vn 0.265904 -0.916129 0.300005
vn 0.184219 -0.839503 0.511173
vn 0.201882 -0.561234 0.802658
vn -0.208369 0.330575 0.920491
s 1
usemtl initialShadingGroup
f 1/1/1 2/2/2 4/3/3 3/4/4
f 3/4/4 4/3/3 6/5/5 5/6/6
f 5/6/6 6/5/5 8/7/7 7/8/8
f 7/8/8 8/7/7 2/2/2 1/1/1
f 2/2/2 8/7/7 6/5/5 4/3/3
s 2
f 9/9/9 10/10/10 12/11/11 11/12/12
f 11/12/12 12/11/11 14/13/13 13/14/14
f 13/14/14 14/13/13 16/15/15 15/16/16
f 15/16/16 16/15/15 10/10/10 9/9/9
f 10/10/10 16/15/15 14/13/13 12/11/11
s 3
f 17/17/17 18/18/18 20/19/19 19/20/20
f 19/20/20 20/19/19 22/21/21 21/22/22
f 21/22/22 22/21/21 24/23/23 23/24/24
f 23/24/24 24/23/23 18/18/18 17/17/17
f 18/18/18 24/23/23 22/21/21 20/19/19
s 4
f 25/25/25 27/26/26 28/27/27 26/28/28
f 27/26/26 29/29/29 30/30/30 28/27/27
f 29/29/29 31/31/31 32/32/32 30/30/30
f 31/31/31 25/25/25 26/28/28 32/32/32
f 26/28/28 28/27/27 30/30/30 32/32/32
s 5
f 33/33/33 35/34/34 36/35/35 34/36/36
f 35/34/34 37/37/37 38/38/38 36/35/35
f 37/37/37 39/39/39 40/40/40 38/38/38
f 39/39/39 33/33/33 34/36/36 40/40/40
f 34/36/36 36/35/35 38/38/38 40/40/40
s 6
f 41/41/41 43/42/42 44/43/43 42/44/44
f 43/42/42 45/45/45 46/46/46 44/43/43
f 45/45/45 47/47/47 48/48/48 46/46/46
f 47/47/47 41/41/41 42/44/44 48/48/48
f 42/44/44 44/43/43 46/46/46 48/48/48
s 7
f 49/73/49 50/74/50 52/75/51 51/76/52
f 51/77/52 52/78/51 54/79/53 53/80/54
f 53/81/54 54/82/53 56/83/55 55/84/56
f 55/84/56 56/85/55 50/86/50 49/73/49
f 50/86/50 56/85/55 54/79/53 52/78/51
f 55/84/56 49/73/49 51/76/52 53/81/54
s 8
f 57/87/57 58/88/58 60/89/59 59/90/60
f 97/91/61 98/92/62 99/93/63 100/94/64
f 61/95/65 62/96/66 64/97/67 63/98/68
f 58/88/58 64/99/67 62/100/66 60/89/59
f 63/98/68 57/87/57 59/90/60 61/95/65
f 59/90/60 60/89/59 66/101/69 65/102/70
f 60/89/59 62/100/66 67/103/71 66/101/69
f 62/96/66 61/95/65 68/104/72 67/105/71
f 61/95/65 59/90/60 65/102/70 68/104/72
f 65/102/70 66/101/69 70/106/73 69/107/74
f 66/101/69 67/103/71 71/108/75 70/106/73
f 67/105/71 68/104/72 72/109/76 71/110/75
f 68/104/72 65/102/70 69/107/74 72/109/76
f 69/107/74 70/106/73 74/111/77 73/112/78
f 70/106/73 71/108/75 75/113/79 74/111/77
f 71/110/75 72/109/76 76/114/80 75/115/79
f 72/109/76 69/107/74 73/112/78 76/114/80
f 73/112/78 74/111/77 78/116/81 77/117/82
f 74/111/77 75/113/79 79/118/83 78/116/81
f 75/115/79 76/114/80 80/119/84 79/120/83
f 76/114/80 73/112/78 77/117/82 80/119/84
f 77/117/82 78/116/81 82/121/85 81/122/86
f 78/116/81 79/118/83 83/123/87 82/121/85
f 79/120/83 80/119/84 84/124/88 83/125/87
f 80/119/84 77/117/82 81/122/86 84/124/88
f 81/122/86 82/121/85 86/126/89 85/127/90
f 82/121/85 83/123/87 87/128/91 86/126/89
f 83/125/87 84/124/88 88/129/92 87/130/91
f 84/124/88 81/122/86 85/127/90 88/129/92
f 85/127/90 86/126/89 90/131/93 89/132/94
f 86/126/89 87/128/91 91/133/95 90/131/93
f 87/130/91 88/129/92 92/134/96 91/135/95
f 88/129/92 85/127/90 89/132/94 92/134/96
f 89/132/94 90/131/93 94/136/97 93/137/98
f 90/131/93 91/133/95 95/138/99 94/136/97
f 91/135/95 92/134/96 96/139/100 95/140/99
f 92/134/96 89/132/94 93/137/98 96/139/100
f 93/137/98 94/136/97 98/141/62 97/142/61
f 94/136/97 95/138/99 99/143/63 98/141/62
f 95/140/99 96/139/100 100/94/64 99/93/63
f 96/139/100 93/137/98 97/142/61 100/94/64
s 11
f 101/144/101 102/145/102 104/146/103 103/147/104
f 103/148/104 104/146/103 106/149/105 105/150/106
f 105/151/106 106/149/105 108/152/107 107/153/108
f 107/154/108 108/155/107 102/156/102 101/157/101
f 102/145/102 108/152/107 106/149/105 104/146/103
f 107/154/108 101/157/101 103/148/104 105/150/106
s 12
f 109/158/109 110/159/110 111/160/111 112/161/112
f 110/159/110 113/162/113 114/163/114 111/160/111
f 113/162/113 115/164/115 116/165/116 114/163/114
f 118/166/117 116/165/116 115/164/115 117/167/118
f 117/167/118 119/168/119 120/169/120 118/166/117
f 119/168/119 121/170/121 122/171/122 120/169/120
f 120/169/120 122/171/122 123/172/123 124/173/124
f 124/173/124 125/174/125 118/166/117 120/169/120
f 125/174/125 126/175/126 116/165/116 118/166/117
f 114/163/114 116/165/116 126/175/126 127/176/127
f 127/176/127 128/177/128 111/160/111 114/163/114
f 128/177/128 129/178/129 112/161/112 111/160/111
f 131/179/130 130/180/131 124/173/124 123/172/123
f 130/180/131 132/181/132 125/174/125 124/173/124
f 132/181/132 133/182/133 126/175/126 125/174/125
f 133/182/133 134/183/134 127/176/127 126/175/126
f 128/177/128 127/176/127 134/183/134 135/72/135
f 136/71/136 129/178/129 128/177/128 135/72/135
f 138/70/137 137/69/138 130/68/131 131/67/130
f 132/66/132 130/68/131 137/69/138 139/65/139
f 139/65/139 140/64/140 133/63/133 132/66/132
f 140/64/140 141/62/141 134/61/134 133/63/133
f 135/60/135 134/61/134 141/62/141 142/59/142
f 143/58/143 136/57/136 135/60/135 142/59/142
f 145/56/144 144/55/145 139/65/139 137/69/138
f 137/69/138 138/70/137 146/54/146 145/56/144
f 145/56/144 146/54/146 121/170/121 119/168/119
f 119/168/119 117/167/118 144/55/145 145/56/144
f 117/167/118 115/164/115 147/53/147 144/55/145
f 144/55/145 147/53/147 140/64/140 139/65/139
f 115/164/115 113/162/113 148/52/148 147/53/147
f 141/62/141 140/64/140 147/53/147 148/52/148
f 113/162/113 110/159/110 149/51/149 148/52/148
f 148/52/148 149/51/149 142/59/142 141/62/141
f 150/50/150 149/51/149 110/159/110 109/158/109
f 149/51/149 150/50/150 143/58/143 142/59/142
f 136/71/136 151/49/151 129/178/129
f 151/49/151 112/161/112 129/178/129
f 151/49/151 109/158/109 112/161/112
f 109/158/109 151/49/151 143/58/143 150/50/150
f 136/57/136 143/58/143 151/49/151
