# This file uses centimeters as units for non-parametric coordinates.

mtllib Ground.mtl
v -8.565789 -0.000000 8.565789
v -6.852631 -0.000000 8.565789
v -5.139474 -0.000000 8.565789
v -3.426315 0.000000 8.565789
v -1.713158 -0.000000 8.565789
v 0.000000 -0.000000 8.565789
v 1.713158 -0.000000 8.565789
v 3.426315 -0.054553 8.565789
v 5.139474 -0.239711 8.565789
v 6.852632 -0.239711 8.565789
v 8.565789 -0.054553 8.565789
v -8.565789 -0.000000 6.852631
v -6.852631 -0.000000 6.852631
v -5.139474 -0.000000 6.852631
v -3.426315 -0.000000 6.852631
v -1.713158 0.000000 6.852631
v 0.000000 -0.000000 6.852631
v 1.713158 -0.000000 6.852631
v 3.426315 -0.239711 6.852631
v 5.139474 -0.615725 6.852631
v 6.852632 -0.615725 6.852631
v 8.565789 -0.239711 6.852631
v -8.565789 -0.000000 5.139474
v -6.852631 -0.000000 5.139474
v -5.139474 -0.000000 5.139474
v -3.426315 -0.000000 5.139474
v -1.713158 -0.000000 5.139474
v 0.000000 -0.081401 5.139474
v 1.713158 -0.357688 5.139474
v 3.426315 -0.590458 5.139474
v 5.139474 -0.697126 5.139474
v 6.852632 -0.615725 5.139474
v 8.565789 -0.239711 5.139474
v -8.565789 -0.000000 3.426315
v -6.852631 -0.000000 3.426315
v -5.139474 -0.000000 3.426315
v -3.426315 -0.000000 3.426315
v -1.713158 -0.047589 3.426315
v 0.000000 -0.586585 3.426315
v 1.713158 -1.147658 3.426315
v 3.426315 -1.000032 3.426315
v 5.139474 -0.590458 3.426315
v 6.852632 -0.239711 3.426315
v 8.565789 -0.054553 3.426315
v -8.565789 -0.000000 1.713158
v -6.852631 -0.000000 1.713158
v -5.139474 -0.000000 1.713158
v -3.426315 -0.070941 1.713158
v -1.713158 -0.541128 1.713158
v 0.000000 -1.259559 1.713158
v 1.713158 -1.549356 1.713158
v 3.426315 -1.147658 1.713158
v 5.139474 -0.357688 1.713158
v 6.852632 -0.000000 1.713158
v 8.565789 -0.000000 1.713158
v -8.565789 0.000000 0.000000
v -6.852631 0.000000 0.000000
v -5.139474 0.000000 0.000000
v -3.426315 -0.316873 0.000000
v -1.713158 -1.058707 0.000000
v 0.000000 -1.499739 0.000000
v 1.713158 -1.259559 0.000000
v 3.426315 -0.586585 0.000000
v 5.139474 -0.081401 0.000000
v 6.852632 0.000000 0.000000
v 8.565789 0.000000 0.000000
v -8.565789 0.000000 -1.713158
v -6.852631 0.000000 -1.713158
v -5.139474 0.000000 -1.713158
v -3.426315 -0.323270 -1.713158
v -1.713158 -0.882243 -1.713158
v 0.000000 -1.058707 -1.713158
v 1.713158 -0.541128 -1.713158
v 3.426315 -0.047589 -1.713158
v 5.139474 0.000000 -1.713158
v 6.852632 0.000000 -1.713158
v 8.565789 0.000000 -1.713158
v -8.565789 0.000000 -3.426315
v -6.852631 0.000000 -3.426315
v -5.139474 0.000000 -3.426315
v -3.426315 -0.073435 -3.426315
v -1.713158 -0.323270 -3.426315
v 0.000000 -0.316873 -3.426315
v 1.713158 -0.070941 -3.426315
v 3.426315 0.000000 -3.426315
v 5.139474 0.000000 -3.426315
v 6.852632 0.000000 -3.426315
v 8.565789 0.000000 -3.426315
v -8.565789 0.000000 -5.139474
v -6.852631 0.000000 -5.139474
v -5.139474 0.000000 -5.139474
v -3.426315 0.000000 -5.139474
v -1.713158 0.000000 -5.139474
v 0.000000 0.000000 -5.139474
v 1.713158 0.000000 -5.139474
v 3.426315 0.000000 -5.139474
v 5.139474 0.000000 -5.139474
v 6.852632 0.000000 -5.139474
v 8.565789 0.000000 -5.139474
v -8.565789 0.000000 -6.852632
v -6.852631 0.000000 -6.852632
v -5.139474 0.000000 -6.852632
v -3.426315 0.000000 -6.852632
v -1.713158 0.000000 -6.852632
v 0.000000 0.000000 -6.852632
v 1.713158 0.000000 -6.852632
v 3.426315 0.000000 -6.852632
v 5.139474 0.000000 -6.852632
v 6.852632 0.000000 -6.852632
v 8.565789 0.000000 -6.852632
v -8.565789 0.000000 -8.565789
v -6.852631 0.000000 -8.565789
v -5.139474 0.000000 -8.565789
v -3.426315 0.000000 -8.565789
v -1.713158 0.000000 -8.565789
v 0.000000 0.000000 -8.565789
v 1.713158 0.000000 -8.565789
v 3.426315 0.000000 -8.565789
v 5.139474 0.000000 -8.565789
v 6.852632 0.000000 -8.565789
v 8.565789 0.000000 -8.565789
vt 0.000000 0.000000
vt 0.100000 0.000000
vt 0.200000 0.000000
vt 0.300000 0.000000
vt 0.400000 0.000000
vt 0.500000 0.000000
vt 0.600000 0.000000
vt 0.700000 0.000000
vt 0.800000 0.000000
vt 0.900000 0.000000
vt 1.000000 0.000000
vt 0.000000 0.100000
vt 0.100000 0.100000
vt 0.200000 0.100000
vt 0.300000 0.100000
vt 0.400000 0.100000
vt 0.500000 0.100000
vt 0.600000 0.100000
vt 0.700000 0.100000
vt 0.800000 0.100000
vt 0.900000 0.100000
vt 1.000000 0.100000
vt 0.000000 0.200000
vt 0.100000 0.200000
vt 0.200000 0.200000
vt 0.300000 0.200000
vt 0.400000 0.200000
vt 0.500000 0.200000
vt 0.600000 0.200000
vt 0.700000 0.200000
vt 0.800000 0.200000
vt 0.900000 0.200000
vt 1.000000 0.200000
vt 0.000000 0.300000
vt 0.100000 0.300000
vt 0.200000 0.300000
vt 0.300000 0.300000
vt 0.400000 0.300000
vt 0.500000 0.300000
vt 0.600000 0.300000
vt 0.700000 0.300000
vt 0.800000 0.300000
vt 0.900000 0.300000
vt 1.000000 0.300000
vt 0.000000 0.400000
vt 0.100000 0.400000
vt 0.200000 0.400000
vt 0.300000 0.400000
vt 0.400000 0.400000
vt 0.500000 0.400000
vt 0.600000 0.400000
vt 0.700000 0.400000
vt 0.800000 0.400000
vt 0.900000 0.400000
vt 1.000000 0.400000
vt 0.000000 0.500000
vt 0.100000 0.500000
vt 0.200000 0.500000
vt 0.300000 0.500000
vt 0.400000 0.500000
vt 0.500000 0.500000
vt 0.600000 0.500000
vt 0.700000 0.500000
vt 0.800000 0.500000
vt 0.900000 0.500000
vt 1.000000 0.500000
vt 0.000000 0.600000
vt 0.100000 0.600000
vt 0.200000 0.600000
vt 0.300000 0.600000
vt 0.400000 0.600000
vt 0.500000 0.600000
vt 0.600000 0.600000
vt 0.700000 0.600000
vt 0.800000 0.600000
vt 0.900000 0.600000
vt 1.000000 0.600000
vt 0.000000 0.700000
vt 0.100000 0.700000
vt 0.200000 0.700000
vt 0.300000 0.700000
vt 0.400000 0.700000
vt 0.500000 0.700000
vt 0.600000 0.700000
vt 0.700000 0.700000
vt 0.800000 0.700000
vt 0.900000 0.700000
vt 1.000000 0.700000
vt 0.000000 0.800000
vt 0.100000 0.800000
vt 0.200000 0.800000
vt 0.300000 0.800000
vt 0.400000 0.800000
vt 0.500000 0.800000
vt 0.600000 0.800000
vt 0.700000 0.800000
vt 0.800000 0.800000
vt 0.900000 0.800000
vt 1.000000 0.800000
vt 0.000000 0.900000
vt 0.100000 0.900000
vt 0.200000 0.900000
vt 0.300000 0.900000
vt 0.400000 0.900000
vt 0.500000 0.900000
vt 0.600000 0.900000
vt 0.700000 0.900000
vt 0.800000 0.900000
vt 0.900000 0.900000
vt 1.000000 0.900000
vt 0.000000 1.000000
vt 0.100000 1.000000
vt 0.200000 1.000000
vt 0.300000 1.000000
vt 0.400000 1.000000
vt 0.500000 1.000000
vt 0.600000 1.000000
vt 0.700000 1.000000
vt 0.800000 1.000000
vt 0.900000 1.000000
vt 1.000000 1.000000
vn 0.000000 1.000000 0.000000
vn 0.000000 1.000000 0.000000
vn 0.000000 1.000000 0.000000
vn 0.000000 1.000000 0.000000
vn -0.000000 1.000000 -0.000000
vn -0.000000 1.000000 -0.000000
vn -0.000000 1.000000 0.000000
vn 0.000000 1.000000 -0.000000
vn 0.000000 1.000000 -0.000000
vn 0.005939 0.999965 -0.005939
vn 0.000000 1.000000 -0.000000
vn 0.026071 0.998940 -0.037937
vn 0.042887 0.998715 -0.026985
vn 0.075258 0.992530 -0.096020
vn 0.122977 0.986603 -0.107194
vn 0.129942 0.982165 -0.135890
vn 0.080752 0.978958 -0.187404
vn 0.068879 0.988910 -0.131577
vn -0.080752 0.978958 -0.187404
vn -0.100276 0.989894 -0.100276
vn -0.159559 0.974208 -0.159559
vn -0.187404 0.978958 -0.080752
vn 0.000000 1.000000 0.000000
vn 0.000000 1.000000 0.000000
vn 0.000000 1.000000 0.000000
vn 0.003472 0.999988 -0.003472
vn 0.054504 0.997282 -0.049586
vn 0.128766 0.977437 -0.167443
vn 0.119339 0.959336 -0.255799
vn 0.052743 0.980389 -0.189881
vn -0.024330 0.999408 -0.024330
vn -0.131577 0.988910 0.068879
vn -0.187404 0.978958 0.080752
vn 0.000000 1.000000 0.000000
vn 0.000000 1.000000 0.000000
vn 0.005176 0.999973 -0.005176
vn 0.046302 0.997690 -0.049700
vn 0.170762 0.971722 -0.163082
vn 0.244276 0.928351 -0.280168
vn 0.083512 0.954924 -0.284862
vn -0.141172 0.979868 -0.141172
vn -0.189881 0.980389 0.052743
vn -0.135890 0.982166 0.129942
vn -0.107194 0.986603 0.122977
vn 0.000000 1.000000 0.000000
vn 0.000000 1.000000 0.000000
vn 0.033445 0.999174 -0.023101
vn 0.155468 0.980867 -0.117174
vn 0.284691 0.932145 -0.223734
vn 0.229321 0.951759 -0.203880
vn -0.052288 0.997262 -0.052288
vn -0.284862 0.954924 0.083512
vn -0.255799 0.959336 0.119339
vn -0.096020 0.992530 0.075258
vn -0.026985 0.998715 0.042887
vn 0.000000 1.000000 0.000000
vn 0.000000 1.000000 0.000000
vn 0.074782 0.997031 -0.018356
vn 0.250952 0.966076 -0.060990
vn 0.297093 0.953557 -0.049643
vn 0.076908 0.994068 0.076908
vn -0.203880 0.951759 0.229321
vn -0.280168 0.928351 0.244276
vn -0.167443 0.977437 0.128766
vn -0.037937 0.998940 0.026071
vn -0.000000 1.000000 0.000000
vn 0.000000 1.000000 0.000000
vn 0.000000 1.000000 0.000000
vn 0.075426 0.996994 0.017709
vn 0.223416 0.970773 0.087662
vn 0.202275 0.958212 0.202275
vn -0.049643 0.953557 0.297093
vn -0.223734 0.932145 0.284691
vn -0.163082 0.971722 0.170762
vn -0.049586 0.997282 0.054504
vn -0.005939 0.999965 0.005939
vn 0.000000 1.000000 -0.000000
vn 0.000000 1.000000 0.000000
vn 0.000000 1.000000 0.000000
vn 0.034274 0.999135 0.023567
vn 0.109779 0.987875 0.109779
vn 0.087662 0.970773 0.223416
vn -0.060990 0.966076 0.250952
vn -0.117174 0.980867 0.155468
vn -0.049700 0.997690 0.046302
vn -0.003472 0.999988 0.003472
vn -0.000000 1.000000 -0.000000
vn -0.000000 1.000000 -0.000000
vn 0.000000 1.000000 0.000000
vn 0.000000 1.000000 0.000000
vn 0.005358 0.999971 0.005358
vn 0.023567 0.999135 0.034274
vn 0.017709 0.996994 0.075426
vn -0.018356 0.997031 0.074782
vn -0.023101 0.999174 0.033445
vn -0.005176 0.999973 0.005176
vn 0.000000 1.000000 0.000000
vn 0.000000 1.000000 0.000000
vn 0.000000 1.000000 0.000000
vn 0.000000 1.000000 0.000000
vn 0.000000 1.000000 0.000000
vn 0.000000 1.000000 0.000000
vn 0.000000 1.000000 0.000000
vn 0.000000 1.000000 0.000000
vn 0.000000 1.000000 0.000000
vn 0.000000 1.000000 0.000000
vn 0.000000 1.000000 0.000000
vn 0.000000 1.000000 0.000000
vn 0.000000 1.000000 0.000000
vn 0.000000 1.000000 0.000000
vn 0.000000 1.000000 0.000000
vn 0.000000 1.000000 0.000000
vn 0.000000 1.000000 0.000000
vn 0.000000 1.000000 0.000000
vn 0.000000 1.000000 0.000000
vn 0.000000 1.000000 0.000000
vn 0.000000 1.000000 0.000000
vn 0.000000 1.000000 0.000000
vn 0.000000 1.000000 0.000000
vn 0.000000 1.000000 0.000000
vn 0.000000 1.000000 0.000000
s 1
usemtl initialShadingGroup
f 1/1/1 2/2/2 13/13/3 12/12/4
f 2/2/2 3/3/5 14/14/6 13/13/3
f 3/3/5 4/4/7 15/15/8 14/14/6
f 4/4/7 5/5/9 16/16/10 15/15/8
f 5/5/9 6/6/11 17/17/12 16/16/10
f 6/6/11 7/7/13 18/18/14 17/17/12
f 7/7/13 8/8/15 19/19/16 18/18/14
f 8/8/15 9/9/17 20/20/18 19/19/16
f 9/9/17 10/10/19 21/21/20 20/20/18
f 10/10/19 11/11/21 22/22/22 21/21/20
f 12/12/4 13/13/3 24/24/23 23/23/24
f 13/13/3 14/14/6 25/25/25 24/24/23
f 14/14/6 15/15/8 26/26/26 25/25/25
f 15/15/8 16/16/10 27/27/27 26/26/26
f 16/16/10 17/17/12 28/28/28 27/27/27
f 17/17/12 18/18/14 29/29/29 28/28/28
f 18/18/14 19/19/16 30/30/30 29/29/29
f 19/19/16 20/20/18 31/31/31 30/30/30
f 20/20/18 21/21/20 32/32/32 31/31/31
f 21/21/20 22/22/22 33/33/33 32/32/32
f 23/23/24 24/24/23 35/35/34 34/34/35
f 24/24/23 25/25/25 36/36/36 35/35/34
f 25/25/25 26/26/26 37/37/37 36/36/36
f 26/26/26 27/27/27 38/38/38 37/37/37
f 27/27/27 28/28/28 39/39/39 38/38/38
f 28/28/28 29/29/29 40/40/40 39/39/39
f 29/29/29 30/30/30 41/41/41 40/40/40
f 30/30/30 31/31/31 42/42/42 41/41/41
f 31/31/31 32/32/32 43/43/43 42/42/42
f 32/32/32 33/33/33 44/44/44 43/43/43
f 34/34/35 35/35/34 46/46/45 45/45/46
f 35/35/34 36/36/36 47/47/47 46/46/45
f 36/36/36 37/37/37 48/48/48 47/47/47
f 37/37/37 38/38/38 49/49/49 48/48/48
f 38/38/38 39/39/39 50/50/50 49/49/49
f 39/39/39 40/40/40 51/51/51 50/50/50
f 40/40/40 41/41/41 52/52/52 51/51/51
f 41/41/41 42/42/42 53/53/53 52/52/52
f 42/42/42 43/43/43 54/54/54 53/53/53
f 43/43/43 44/44/44 55/55/55 54/54/54
f 45/45/46 46/46/45 57/57/56 56/56/57
f 46/46/45 47/47/47 58/58/58 57/57/56
f 47/47/47 48/48/48 59/59/59 58/58/58
f 48/48/48 49/49/49 60/60/60 59/59/59
f 49/49/49 50/50/50 61/61/61 60/60/60
f 50/50/50 51/51/51 62/62/62 61/61/61
f 51/51/51 52/52/52 63/63/63 62/62/62
f 52/52/52 53/53/53 64/64/64 63/63/63
f 53/53/53 54/54/54 65/65/65 64/64/64
f 54/54/54 55/55/55 66/66/66 65/65/65
f 56/56/57 57/57/56 68/68/67 67/67/68
f 57/57/56 58/58/58 69/69/69 68/68/67
f 58/58/58 59/59/59 70/70/70 69/69/69
f 59/59/59 60/60/60 71/71/71 70/70/70
f 60/60/60 61/61/61 72/72/72 71/71/71
f 61/61/61 62/62/62 73/73/73 72/72/72
f 62/62/62 63/63/63 74/74/74 73/73/73
f 63/63/63 64/64/64 75/75/75 74/74/74
f 64/64/64 65/65/65 76/76/76 75/75/75
f 65/65/65 66/66/66 77/77/77 76/76/76
f 67/67/68 68/68/67 79/79/78 78/78/79
f 68/68/67 69/69/69 80/80/80 79/79/78
f 69/69/69 70/70/70 81/81/81 80/80/80
f 70/70/70 71/71/71 82/82/82 81/81/81
f 71/71/71 72/72/72 83/83/83 82/82/82
f 72/72/72 73/73/73 84/84/84 83/83/83
f 73/73/73 74/74/74 85/85/85 84/84/84
f 74/74/74 75/75/75 86/86/86 85/85/85
f 75/75/75 76/76/76 87/87/87 86/86/86
f 76/76/76 77/77/77 88/88/88 87/87/87
f 78/78/79 79/79/78 90/90/89 89/89/90
f 79/79/78 80/80/80 91/91/91 90/90/89
f 80/80/80 81/81/81 92/92/92 91/91/91
f 81/81/81 82/82/82 93/93/93 92/92/92
f 82/82/82 83/83/83 94/94/94 93/93/93
f 83/83/83 84/84/84 95/95/95 94/94/94
f 84/84/84 85/85/85 96/96/96 95/95/95
f 85/85/85 86/86/86 97/97/97 96/96/96
f 86/86/86 87/87/87 98/98/98 97/97/97
f 87/87/87 88/88/88 99/99/99 98/98/98
f 89/89/90 90/90/89 101/101/100 100/100/101
f 90/90/89 91/91/91 102/102/102 101/101/100
f 91/91/91 92/92/92 103/103/103 102/102/102
f 92/92/92 93/93/93 104/104/104 103/103/103
f 93/93/93 94/94/94 105/105/105 104/104/104
f 94/94/94 95/95/95 106/106/106 105/105/105
f 95/95/95 96/96/96 107/107/107 106/106/106
f 96/96/96 97/97/97 108/108/108 107/107/107
f 97/97/97 98/98/98 109/109/109 108/108/108
f 98/98/98 99/99/99 110/110/110 109/109/109
f 100/100/101 101/101/100 112/112/111 111/111/112
f 101/101/100 102/102/102 113/113/113 112/112/111
f 102/102/102 103/103/103 114/114/114 113/113/113
f 103/103/103 104/104/104 115/115/115 114/114/114
f 104/104/104 105/105/105 116/116/116 115/115/115
f 105/105/105 106/106/106 117/117/117 116/116/116
f 106/106/106 107/107/107 118/118/118 117/117/117
f 107/107/107 108/108/108 119/119/119 118/118/118
f 108/108/108 109/109/109 120/120/120 119/119/119
f 109/109/109 110/110/110 121/121/121 120/120/120
